<svg xmlns="http://www.w3.org/2000/svg" viewBox="0 0 24 24" fill="none">
  <path d="M9.7 3.6h4.6l.7 2.1a7.7 7.7 0 0 1 1.5.9l2-.9 2.3 4-1.6 1.5c.1.5.1.8.1 1.3s0 .8-.1 1.3l1.6 1.5-2.3 4-2-.9c-.5.4-1 .6-1.5.9l-.7 2.1H9.7L9 19.3a7.7 7.7 0 0 1-1.5-.9l-2 .9-2.3-4 1.6-1.5A7 7 0 0 1 4.7 12c0-.5 0-.8.1-1.3L3.2 9.2l2.3-4 2 .9c.5-.4 1-.6 1.5-.9l.7-1.7Z" fill="#E2E8F0" stroke="#0F172A" stroke-width="1.5" stroke-linejoin="round"/>
  <circle cx="12" cy="12" r="3.1" fill="#38BDF8" stroke="#0F172A" stroke-width="1.5"/>
</svg>
