<svg xmlns="http://www.w3.org/2000/svg" viewBox="0 0 24 24" fill="none">
  <circle cx="12" cy="12" r="9" fill="#F8FAFC" stroke="#0F172A" stroke-width="1.5"/>
  <path d="M12 3a9 9 0 0 1 7.8 4.5L12 12V3Z" fill="#38BDF8"/>
  <path d="M19.8 7.5A9 9 0 0 1 21 12h-9l7.8-4.5Z" fill="#FBBF24"/>
  <path d="M21 12a9 9 0 0 1-4.5 7.8L12 12h9Z" fill="#F472B6"/>
  <path d="M16.5 19.8A9 9 0 0 1 12 21v-9l4.5 7.8Z" fill="#86EFAC"/>
  <path d="M12 21a9 9 0 0 1-7.8-4.5L12 12v9Z" fill="#38BDF8"/>
  <path d="M4.2 16.5A9 9 0 0 1 3 12h9l-7.8 4.5Z" fill="#FBBF24"/>
  <path d="M3 12a9 9 0 0 1 4.5-7.8L12 12H3Z" fill="#F472B6"/>
  <path d="M7.5 4.2A9 9 0 0 1 12 3v9L7.5 4.2Z" fill="#86EFAC"/>
  <circle cx="12" cy="12" r="2.2" fill="#0F172A"/>
  <circle cx="12" cy="12" r="9" stroke="#0F172A" stroke-width="1.5"/>
</svg>
